<svg width= "100px" height= "100px" version="1.0" id="Layer_1" xmlns="http://www.w3.org/2000/svg" xmlns:xlink="http://www.w3.org/1999/xlink" x="0px" y="0px"
	 viewBox="0 0 1000 1000" style="enable-background:new 0 0 1000 1000;" xml:space="preserve">
<style type="text/css">
	.st0{fill:#F7931E;}
	.st1{fill:none;stroke:#F7931E;stroke-miterlimit:10;}
	.st2{fill:#F2F2F2;}
	.st3{fill:none;stroke:#F7931E;stroke-width:10.7354;stroke-miterlimit:10;}
</style>
<g id="XMLID_1_">
	<path id="XMLID_21_" class="st0" d="M77.9,756.5v-84.2h60.6v15.3H93.8v23h42.3v14.7H93.8v31.2H77.9z"/>
	<path id="XMLID_26_" class="st0" d="M350.4,714.8c-0.2,21.8-13.6,43.6-43.2,43.6c-29.6,0-43.3-21.3-43.3-43.5s14.2-44.4,43.3-44.4
		C336.1,670.5,350.6,692.8,350.4,714.8z M279.4,715.2c0.4,13.8,7.8,28.7,27.7,28.7c19.9,0,27.3-14.9,27.6-28.8
		c0.2-14.2-7.7-30.1-27.6-30.1C287.3,685,279.1,701,279.4,715.2z"/>
	<path id="XMLID_29_" class="st0" d="M560.4,714.8c-0.2,21.8-13.6,43.6-43.2,43.6c-29.6,0-43.3-21.3-43.3-43.5s14.2-44.4,43.3-44.4
		C546.2,670.5,560.7,692.8,560.4,714.8z M489.5,715.2c0.4,13.8,7.8,28.7,27.7,28.7c19.9,0,27.3-14.9,27.6-28.8
		c0.2-14.2-7.7-30.1-27.6-30.1C497.4,685,489.2,701,489.5,715.2z"/>
	<path id="XMLID_32_" class="st0" d="M761.9,713.6c0.4,21.3-12.6,42.9-42.1,42.9c-10.4,0-22.8,0-33.1,0v-84.3c10.4,0,22.8,0,33.1,0
		C748.6,672.2,761.5,692.8,761.9,713.6z M702.4,741.2h17.3c19.1,0,26.7-14,26.4-27.7c-0.4-13.1-8.1-26.2-26.4-26.2h-17.3V741.2z"/>
	<path id="XMLID_35_" class="st0" d="M939.9,692.5c-2.9-4.8-10.8-9.4-20-9.4c-11.8,0-17.5,4.9-17.5,11.2c0,7.3,8.7,9.4,18.8,10.6
		c17.6,2.2,34,6.7,34,26.8c0,18.8-16.6,26.8-35.4,26.8c-17.2,0-30.5-5.3-36.7-20.7l13.2-6.9c3.7,9.3,13.5,13.4,23.7,13.4
		c10,0,19.4-3.5,19.4-12.6c0-7.9-8.3-11.2-19.5-12.4c-17.2-2-33.1-6.6-33.1-25.5c0-17.3,17.1-24.4,32.6-24.6
		c13.1,0,26.7,3.7,33.1,16.7L939.9,692.5z"/>
</g>
<path id="XMLID_4_" class="st1" d="M537,165c0,0,0.3,0-15,0"/>
<path id="XMLID_10_" class="st2" d="M705.7,379.2c0,0,30.5-28.6,25.8-50s25.4,4.3,66.1,0c40.8-4.3,53.8-49.7,18.3-86
	c0,0,46.6,8.5,44.2,43.1c-2.4,34.6-13.2,79-73.5,72.7l-13.5,44.6L705.7,379.2z"/>
<path id="XMLID_14_" d="M84.4,437.3c-2.7,5.6-6.3,9.8-10.9,12.6c-4.5,2.8-9.9,4.2-16.2,4.2c-12.4,0-22.1-5-28.8-15.1
	c-6.8-10.1-10.2-24.5-10.2-43.3c0-38.1,11.8-70.9,35.5-98.1c23.7-27.3,52.1-40.9,85.3-40.9c22.8,0,40.7,5.7,53.5,17
	c12.8,11.3,19.3,27.1,19.3,47.2c0,11-2,25.4-6,43.1c-4,17.7-10.4,40.3-19.2,67.7c35.9-64,66.1-108.8,90.5-134.3
	c24.4-25.5,48.5-38.3,72.3-38.3c14.2,0,25.3,4.5,33.2,13.4c7.9,8.9,11.9,21.5,11.9,37.6c0,20-12.5,57.5-37.6,112.8l-5.5,11.7
	c41.7-63.8,76.6-109.4,105-136.8c28.3-27.4,54.3-41.1,77.9-41.1c13.1,0,23.8,4.4,32.2,13.3c8.4,8.9,12.6,20.2,12.6,34.1
	c0,19.8-13.4,61.4-40.2,125l-6.5,15.3l-3.8,9.3c-26.8,64.3-40.2,102.4-40.2,114.2c0,10.9,3.7,18.8,11,23.8c7.3,5,19.3,7.8,35.9,8.3
	l-9.3,32.1h-7.2c-31.6,0-54.6-5.2-69.1-15.7c-14.4-10.5-21.7-26.9-21.7-49.4c0-19.8,15.9-66.6,47.6-140.5
	c6.7-15.5,11.9-27.4,15.6-35.9l2.4-5.5c14-33.2,21.1-53.6,21.1-61.3c0-3.5-1.1-6.5-3.4-9c-2.2-2.5-4.9-3.7-7.9-3.7
	c-12.3,0-35.1,20.1-68.3,60.2C402,411.3,372,458.2,345.4,512c-8.5,16.6-16.6,33.6-24.3,51.1c-7.7,17.5-15,35.2-21.9,53.3
	c-2.7,7.2-6.1,11.7-10.2,13.6c-4.1,1.9-10.7,2.9-19.7,2.9c-13.7,0-23.9-1.2-30.4-3.5c-6.5-2.3-9.8-5.9-9.8-10.7
	c0-2.7,5.9-17.2,17.7-43.3c9.3-20.9,16.9-38.3,23-52.2c22.3-51.4,39.8-94.1,52.3-128.1c12.5-34,18.8-55.5,18.8-64.6
	c0-4.9-1.4-9.1-4.3-12.3c-2.9-3.3-6.5-4.9-10.8-4.9c-15.3,0-36.5,17.8-63.7,53.5c-27.1,35.7-53.5,81.3-79,136.8
	c-9.6,20.9-19.2,44.2-28.7,69.9c-9.6,25.7-15.1,40.1-16.5,43.3c-3.2,7.3-6.6,11.9-10.3,13.5c-3.7,1.7-11,2.5-22,2.5
	c-11.3,0-20.1-1.2-26.3-3.6c-6.2-2.4-9.3-5.7-9.3-10.1c0-4.5,5.9-20.8,17.7-49.1c11.8-28.2,21.5-52.6,29.2-73
	c12.6-32.7,22.6-63.6,30-92.6c7.4-29,11.1-50.3,11.1-63.7c0-11-2.7-19.5-8-25.5c-5.3-6-13-9-22.9-9c-16.6,0-30.9,8.4-42.9,25.3
	c-12,16.8-18,36.9-18,60.2c0,9.9,1.6,19,4.9,27.2C74.4,427.2,78.8,433.3,84.4,437.3z"/>
<path id="XMLID_16_" d="M720.7,483.1c-8-1.3-14-4.2-18.2-8.9c-4.2-4.6-6.2-10.9-6.2-18.7c0-11.3,3.2-20.7,9.6-28.1
	c6.4-7.4,14.4-11.1,24.2-11.1c10.7,0,19,4.3,24.9,12.9c5.9,8.6,8.9,20.7,8.9,36.1c0,19.3-3.1,39-9.2,59c-6.1,20-14.8,38.4-26,55.2
	c-11.8,17.9-24.5,31.2-38.1,40.1c-13.6,8.9-28.2,13.3-43.8,13.3c-11.3,0-21.2-1.5-29.6-4.4c-8.4-3-15.5-7.5-21.4-13.5
	c-10.5,5.3-21.4,9.3-32.7,12.1s-23.6,4.4-37,4.9l9.6-32.3c8.8-0.5,16.6-1.6,23.6-3.4c6.9-1.8,13.2-4.2,18.8-7.4
	c-1.9-5.3-3.4-10.8-4.3-16.6c-1-5.8-1.4-12-1.4-18.6c0-17.7,3.6-36.1,10.9-55.1c7.3-19,17.2-35.8,29.8-50.5
	c11-13.1,24.2-23.7,39.5-31.8c15.3-8.1,29.6-12.2,42.8-12.2c3.5,0,6.3,0.8,8.3,2.3c2,1.5,3,3.6,3,6.1c0,3.5-3.9,9.1-11.6,16.6
	c-7.7,7.6-13.7,13.9-17.8,19c-16.4,20.6-29,41.5-37.8,62.6c-8.8,21.1-13.2,41-13.2,59.5c0,8.8,2,15.6,5.9,20.6
	c3.9,4.9,9.3,7.4,16.2,7.4c16.4,0,32.5-11.8,48.1-35.3C711.9,539.4,720.1,512.7,720.7,483.1z"/>
<path id="XMLID_18_" d="M829.9,370.7c0-7.5,0.6-12.4,1.8-14.8c1.2-2.4,3.5-4.5,6.8-6.2c4-1.8,9.5-3.5,16.5-5.1s12.4-2.5,16-2.5
	c3.4,0,6,0.8,7.9,2.5s2.9,4,2.9,7.1c0,4.9-1.9,12.1-5.7,21.5c-3.8,9.4-9.1,19.8-15.8,31.1c-6.4,10.1-12.5,18.2-18.4,24.4
	c-5.9,6.2-10.3,9.3-13.2,9.3c-3.5,0-6.5-0.9-9-2.8c-2.5-1.8-3.7-4.2-3.7-7.1c0-1,0.9-3.4,2.6-7.2
	C826.1,404.1,829.9,387.3,829.9,370.7z"/>
<g id="XMLID_3_">
	<g id="XMLID_7_">
		<path id="XMLID_9_" class="st0" d="M778.4,413.2l-157.8-47.8l13.8-45.5c-5.6-2.7-13.6-7.5-21-14.6c-12-11.7-24.4-32.2-15.1-63.1
			c8.8-29.1,39.1-49.8,72-49.3c32.7,0.5,58.9,21.1,71.7,55.8c29.9-21.7,63.1-24.3,90.6-6.6c27.7,17.8,41.4,51.9,32.5,81
			c-9.4,30.9-31,41.1-47.6,44.1c-10.1,1.9-19.4,1.3-25.6,0.5L778.4,413.2z M640,355l128,38.8l13.5-44.4l7.3,1.9
			c1.9,0.5,48.2,11.9,61.7-32.8c6.8-22.6-4.1-49.2-26.1-63.4c-24.5-15.8-54-11.2-81,12.5l-9.4,8.3l-3.2-12.1
			c-9.3-34.7-31.3-54.9-60.5-55.4c-26.1-0.4-50,15.7-56.9,38.2c-13.5,44.6,31.2,60.8,33.1,61.5l7,2.5l-2.1,7.1L640,355z"/>
	</g>
	<g id="XMLID_6_">
		<path id="XMLID_8_" class="st0" d="M791,367.3l-7.9-0.8l-43.4-13.8l4.6-14.9c17.2,5.2,29.6,9.1,36.7,11.4c2.6,0.8,4.4,1.4,5.5,1.9
			c6.7,2.5,6.2,7.7,5.9,9.2L791,367.3z"/>
	</g>
</g>
<path id="XMLID_25_" d="M981.6,527.1c0-13.9-3.1-27.4-9.3-40.6c-6.2-13.2-16.4-27.6-30.4-43.2c8-6.7,14-13.5,18-20.3
	c4-6.9,6-13.6,6-20.3c0-7.2-2.4-12.9-7.1-17.1c-4.7-4.2-11.1-6.3-19-6.3c-13.4,0-24.9,4.5-34.5,13.4c-9.6,8.9-14.4,19.6-14.4,32.1
	c0,4.9,0.7,9.3,2,13c1.4,3.8,3.6,7.2,6.8,10.4c-26.7,45-52.3,81-77,108.1c-24.7,27.1-44.6,41.5-60,43.4l-9.1,32.3
	c10.7-1.4,20.7-4,29.9-7.7c9.3-3.7,17.7-8.5,25.4-14.4c7.3,7.2,16.6,12.8,27.8,16.9c11.2,4.1,23,6.1,35.4,6.1c7.8,0,16.2-1,25.3-2.9
	c2.9-0.6,5.8-1.4,8.7-2.2l0,0c0,0,7.2-1.1,17.2-5.8c0.8-0.3,1.5-0.6,2.3-0.9l0.6-0.6c12-6.2,27.3-17.5,39.2-37.5
	c3.8-5.8,7-12.1,9.6-19.2C979.4,552,981.6,539.7,981.6,527.1z M875.1,599.6c-2.7-7-6.3-12.9-10.7-17.6c-4.4-4.7-9.6-8.2-15.7-10.4
	c14.8-15.3,27.9-30.8,39.3-46.4c11.3-15.6,20.1-30.3,26.3-44c3,9.9,5.3,18.9,6.7,26.9c1.4,8.1,2.2,15.7,2.2,22.9
	c0,18.5-4.3,33.8-12.8,46C901.9,589,890.1,596.6,875.1,599.6z"/>
<line id="XMLID_2_" class="st3" x1="62.3" y1="799.3" x2="966.6" y2="799.3"/>
<line id="XMLID_38_" class="st3" x1="62.3" y1="215.9" x2="579.2" y2="215.9"/>
<line id="XMLID_39_" class="st3" x1="749.5" y1="215.9" x2="966.6" y2="215.9"/>
</svg>